<?xml version="1.0" encoding="utf-8"?>
<!-- Generator: Adobe Illustrator 14.0.0, SVG Export Plug-In . SVG Version: 6.00 Build 43363)  -->
<!DOCTYPE svg PUBLIC "-//W3C//DTD SVG 1.1//EN" "http://www.w3.org/Graphics/SVG/1.1/DTD/svg11.dtd">
<svg version="1.1" id="Слой_1" xmlns="http://www.w3.org/2000/svg" xmlns:xlink="http://www.w3.org/1999/xlink" x="0px" y="0px"
	 width="1700.79px" height="1700.79px" viewBox="0 0 1700.79 1700.79" enable-background="new 0 0 1700.79 1700.79"
	 xml:space="preserve">
<path fill-rule="evenodd" clip-rule="evenodd" fill="#ADCB35" d="M664.812,1672.104c57.516,22.752,127.906-25.358,180.602-25.358
	c52.694,0,128.305,37.207,170.173,25.358C1329.072,1583.306,1525,1120.028,1525,899.214c0-148.289-47.085-324.467-262.133-415.872
	c-192.531-81.77-252.492-5.294-372.659,11.613c-0.709-17.222-1.658-34.445-2.922-51.59c40.608-31.602,121.98-83.112,252.179-115.581
	C1337.842,278.487,1414,36.5,1414,36.5s-71.814-15.721-161.166-15.721h-1.343c-74.261,0.158-160.534,11.376-227.688,51.668
	c-84.374,50.72-129.247,159.11-152.16,243.25c-10.271-60.436-24.49-120.322-42.742-178.784c-3.237-16.592-7.028-30.89-11.376-41.555
	c-30.888-75.766-119.689-38.949-119.689,0c0,25.834,14.456,38.868,30.497,52.772c20.065,61.939,35.63,125.141,46.61,189.294
	c1.502,8.609,2.846,17.222,4.111,25.913c0.628,3.713,1.105,7.425,1.656,11.217c0.081,0.553,0.159,1.105,0.235,1.501
	c0.159,1.264,0.318,2.607,0.477,3.871c2.21,17.381,4.03,34.762,5.53,52.222c1.896,20.619,3.083,41.161,3.95,61.779
	c-122.061-17.933-204.698-86.349-363.1-22.121C247.042,545.122,165.83,752.19,165.83,899.214
	C165.83,1107.705,377.24,1558.026,664.812,1672.104L664.812,1672.104z M364.444,745.712c0-54.117,45.188-99.387,99.384-99.387
	c54.118,0,99.228,45.27,99.228,99.387c0,54.196-45.11,99.388-99.228,99.388C409.632,845.1,364.444,799.908,364.444,745.712z"/>
</svg>
