<?xml version="1.0" encoding="utf-8"?>
<!-- Generator: Adobe Illustrator 14.0.0, SVG Export Plug-In . SVG Version: 6.00 Build 43363)  -->
<!DOCTYPE svg PUBLIC "-//W3C//DTD SVG 1.1//EN" "http://www.w3.org/Graphics/SVG/1.1/DTD/svg11.dtd">
<svg version="1.1" id="Слой_1" xmlns="http://www.w3.org/2000/svg" xmlns:xlink="http://www.w3.org/1999/xlink" x="0px" y="0px"
	 width="1700.79px" height="1700.79px" viewBox="0 0 1700.79 1700.79" enable-background="new 0 0 1700.79 1700.79"
	 xml:space="preserve">
<g>
	<path fill="#ADCB35" d="M118.158,1465.174h1352.516c55.979,0,101.459-45.408,101.459-101.459V1134.76h-485.439
		c-36.396,0-71.943-7.094-105.289-21.285c-32.068-13.551-61.018-33.133-85.707-57.822c-24.69-24.691-44.272-53.639-57.824-85.707
		c-14.048-33.348-21.284-68.822-21.284-105.221v-28.592c0-36.326,7.095-71.872,21.284-105.146
		c13.552-32.211,33.134-61.088,57.824-85.778c24.689-24.69,53.639-44.344,85.707-57.824c33.346-14.048,68.894-21.285,105.289-21.285
		h485.439V337.072c0-55.909-45.479-101.456-101.459-101.456H118.158c-55.979,0-101.458,45.547-101.458,101.456v1026.643
		C16.7,1419.766,62.179,1465.174,118.158,1465.174z"/>
	<path fill="#ADCB35" d="M1684.092,743.614c0-42.145-33.988-76.059-76.059-76.059h-493.812v93.156
		c49.522,0,89.608,40.087,89.608,89.61c0,49.522-40.086,89.608-89.608,89.608v93.371h493.812c42.069,0,76.059-33.984,76.059-76.129
		V743.614z M1114.223,667.557h-27.529c-93.227,0-168.646,75.35-168.646,168.576v28.592c0,93.158,75.42,168.578,168.646,168.578
		h27.529v-93.371l0,0c-49.523,0-89.682-40.086-89.682-89.608c0-49.523,40.157-89.61,89.682-89.61l0,0V667.557z"/>
</g>
</svg>
