<?xml version="1.0" encoding="utf-8"?>
<!-- Generator: Adobe Illustrator 14.0.0, SVG Export Plug-In . SVG Version: 6.00 Build 43363)  -->
<!DOCTYPE svg PUBLIC "-//W3C//DTD SVG 1.1//EN" "http://www.w3.org/Graphics/SVG/1.1/DTD/svg11.dtd">
<svg version="1.1" id="Слой_1" xmlns="http://www.w3.org/2000/svg" xmlns:xlink="http://www.w3.org/1999/xlink" x="0px" y="0px"
	 width="1700.79px" height="1700.79px" viewBox="0 0 1700.79 1700.79" enable-background="new 0 0 1700.79 1700.79"
	 xml:space="preserve">
<g>
	<path fill="#ADCB35" d="M1668.694,900.803H901.326v122.246c75.382,5.055,148.811,22.492,218.409,51.912
		c81.006,34.313,153.783,83.371,216.208,145.797c52.078,52.076,94.7,111.162,127.298,176.193
		C1582.145,1263.625,1657.937,1090.854,1668.694,900.803z"/>
	<path fill="#ADCB35" d="M1394.542,243.783C1261.7,126.185,1090.071,51.452,901.326,40.776v555.396
		c139.521-10.759,269.264-70.169,369.015-170.246C1323.802,372.791,1365.446,310.936,1394.542,243.783z"/>
	<path fill="#ADCB35" d="M808.665,808.142V689.24c-75.385-5.051-148.73-22.49-218.491-51.912
		c-80.846-34.312-153.701-83.37-216.128-145.797c-52.646-52.647-95.636-112.465-128.234-178.231
		C127.438,446.302,52.014,618.665,41.296,808.142H808.665z"/>
	<path fill="#ADCB35" d="M246.749,1396.952c32.598-65.031,75.22-124.359,127.296-176.193
		c62.427-62.426,135.282-111.484,216.128-145.797c69.761-29.42,143.106-46.857,218.49-51.912V900.803H41.296
		C52.014,1090.854,127.765,1263.625,246.749,1396.952z"/>
	<path fill="#ADCB35" d="M901.326,808.142h767.368c-10.597-189.477-85.898-361.84-204.393-495.087
		c-32.764,66.013-75.711,125.83-128.112,178.315c-62.427,62.425-135.283,111.487-216.292,145.795
		c-69.597,29.42-142.943,46.86-218.41,51.913v119.063L901.326,808.142L901.326,808.142z"/>
	<path fill="#ADCB35" d="M1270.34,1286.118c-99.997-99.994-229.492-159.486-369.015-170.246v552.139
		c188.255-10.598,359.397-85.082,492.237-201.947C1364.469,1399.887,1323.15,1338.926,1270.34,1286.118z"/>
	<path fill="#ADCB35" d="M439.567,425.927c100.078,100.077,229.658,159.487,369.097,170.246V40.776
		C619.918,51.452,448.369,126.185,315.49,243.783C344.584,310.936,386.27,372.791,439.567,425.927z"/>
	<path fill="#ADCB35" d="M808.665,1115.872c-139.438,10.76-269.182,70.252-369.098,170.246
		c-52.564,52.648-94.087,113.607-123.14,179.943c132.757,117.109,304.061,191.352,492.235,201.947v-552.137H808.665z"/>
</g>
</svg>
