<?xml version="1.0" encoding="utf-8"?>
<!-- Generator: Adobe Illustrator 14.0.0, SVG Export Plug-In . SVG Version: 6.00 Build 43363)  -->
<!DOCTYPE svg PUBLIC "-//W3C//DTD SVG 1.1//EN" "http://www.w3.org/Graphics/SVG/1.1/DTD/svg11.dtd">
<svg version="1.1" id="Слой_1" xmlns="http://www.w3.org/2000/svg" xmlns:xlink="http://www.w3.org/1999/xlink" x="0px" y="0px"
	 width="1700.79px" height="1700.79px" viewBox="0 0 1700.79 1700.79" enable-background="new 0 0 1700.79 1700.79"
	 xml:space="preserve">
<path fill="#ADCB35" d="M1676.127,831.525L880.749,39.221c-5-5.001-11.498-7.713-18.066-7.999h-2.645
	c-6.642,0.286-13.071,2.998-18.067,7.999L46.376,831.525c-5.001,5.001-7.569,11.427-7.855,17.856v2.783
	c0.287,6.502,2.998,13,7.855,18.074c5.498,5.641,12.425,8.422,19.425,8.422v0.145h191.971v765.813
	c0,7.496,3.142,14.354,8.071,19.281c5.072,4.932,11.928,8.07,19.353,8.07h383.87c15.286,0,27.496-12.354,27.496-27.352v-546.85
	h329.091v546.85c0,14.996,12.284,27.352,27.425,27.352h383.798c15.143,0,27.496-12.354,27.496-27.352V878.805h193.186
	c7.217,0.145,14.001-2.715,18.57-8.43c4.5-5.713,7.144-12.426,7.567-18.922v-3.213
	C1683.271,842.167,1680.986,836.383,1676.127,831.525z"/>
</svg>
