<?xml version="1.0" encoding="utf-8"?>
<!-- Generator: Adobe Illustrator 14.0.0, SVG Export Plug-In . SVG Version: 6.00 Build 43363)  -->
<!DOCTYPE svg PUBLIC "-//W3C//DTD SVG 1.1//EN" "http://www.w3.org/Graphics/SVG/1.1/DTD/svg11.dtd">
<svg version="1.1" id="Слой_1" xmlns="http://www.w3.org/2000/svg" xmlns:xlink="http://www.w3.org/1999/xlink" x="0px" y="0px"
	 width="1700.79px" height="1700.79px" viewBox="0 0 1700.79 1700.79" enable-background="new 0 0 1700.79 1700.79"
	 xml:space="preserve">
<g>
	<polygon fill="#ADCB35" points="839.701,1565.454 839.701,941.573 1302.691,478.582 1302.691,444.431 252.195,444.431 
		252.195,478.582 715.185,941.573 715.185,1565.454 544.891,1565.454 508.247,1665.413 1046.613,1665.413 1009.968,1565.454 	"/>
	<polygon fill="#ADCB35" points="1141.693,35.377 1215.959,73.105 857.969,778.46 783.704,740.731 	"/>
	<rect x="1142.344" y="35.377" fill="#ADCB35" width="374.686" height="82.45"/>
	<path fill="#ADCB35" d="M777.417,557.617c66.893,0,121.426-54.588,121.426-121.426c0-66.894-54.533-121.426-121.426-121.426
		c-66.838,0-121.427,54.533-121.427,121.426C655.989,503.029,710.578,557.617,777.417,557.617z"/>
</g>
</svg>
