<?xml version="1.0" encoding="utf-8"?>
<!-- Generator: Adobe Illustrator 14.0.0, SVG Export Plug-In . SVG Version: 6.00 Build 43363)  -->
<!DOCTYPE svg PUBLIC "-//W3C//DTD SVG 1.1//EN" "http://www.w3.org/Graphics/SVG/1.1/DTD/svg11.dtd">
<svg version="1.1" id="Слой_1" xmlns="http://www.w3.org/2000/svg" xmlns:xlink="http://www.w3.org/1999/xlink" x="0px" y="0px"
	 width="1700.79px" height="1700.79px" viewBox="0 0 1700.79 1700.79" enable-background="new 0 0 1700.79 1700.79"
	 xml:space="preserve">
<g>
	<path fill="#ADCB35" d="M413.171,944.418v232.752c0,0,197.428,218.078,474.885,218.078c349.158,0,474.853-218.078,474.853-218.078
		V924.667l-410.023,239.625c-29.227,17.215-65.387,18.141-95.663,3.035L413.171,944.418z"/>
	<path fill="#ADCB35" d="M898.396,667.458c-51.271,0-102.229-10.588-129.782-32.816L275.556,805.288L860.5,1098.165
		c30.342,15.107,66.131,13.869,95.479-3.283l681.601-397.208c31.825-18.638,50.772-53.002,49.781-89.781
		c-1.3-36.842-22.539-69.969-55.354-86.623L926.135,168.023c-30.277-15.109-66.129-13.87-95.354,3.096L149.057,568.45
		c-31.796,18.515-50.71,53.063-49.751,89.906c1.301,36.655,22.476,69.905,55.324,86.376l-1.547,360.737
		c-35.108,12.383-60.31,45.943-60.31,85.322c0,29.352,13.653,55.295,35.079,72.012c-6.843,49.723-29.753,85.512-57.307,111.27
		c-22.259,20.494-33.808,49.781-31.794,79.813c1.733,30.092,17.183,57.771,41.609,75.23l12.662,9.041
		c23.22,16.471,52.229,22.539,80.03,15.914c28.049-6.256,51.763-23.965,65.664-48.67c47.956-85.883,24.674-197.209,8.793-250.459
		c16.408-16.41,26.749-39.135,26.749-64.148c0-39.131-24.922-72.691-59.784-85.324l1.239-344.39l535.193-185.26
		c4.582-22.786,27.556-43.468,27.556-43.468c-1.797,6.069,1.795,80.806,114.921,80.806c65.075,0,117.582-20.682,117.582-63.158
		c0-7.802-1.733-16.162-5.017-24.954c18.143,22.727,29.289,47.987,29.289,68.917C1035.236,643.186,973.936,667.458,898.396,667.458z
		"/>
</g>
</svg>
