<?xml version="1.0" encoding="utf-8"?>
<!-- Generator: Adobe Illustrator 14.0.0, SVG Export Plug-In . SVG Version: 6.00 Build 43363)  -->
<!DOCTYPE svg PUBLIC "-//W3C//DTD SVG 1.1//EN" "http://www.w3.org/Graphics/SVG/1.1/DTD/svg11.dtd">
<svg version="1.1" id="Слой_1" xmlns="http://www.w3.org/2000/svg" xmlns:xlink="http://www.w3.org/1999/xlink" x="0px" y="0px"
	 width="1700.79px" height="1700.79px" viewBox="0 0 1700.79 1700.79" enable-background="new 0 0 1700.79 1700.79"
	 xml:space="preserve">
<path fill-rule="evenodd" clip-rule="evenodd" fill="#ADCB35" stroke="#2B2A29" stroke-width="0.5669" stroke-miterlimit="22.9256" d="
	M1588.645,1064.079L907.89,637.603v-32.01c0-18.965,9.667-34.26,30.436-47.9c2.624-1.651,5.619-3.526,9.067-5.623
	c32.985-20.318,101.953-62.52,101.953-157.428c0-98.877-81.563-174.516-160.197-190.783c-19.416-4.049-38.458-6.073-56.752-5.997
	c-59.894,0.074-112.747,21.59-150.226,62.668c-44.528,48.879-57.122,89.509-59.747,155.479c-0.149,4.798-0.374,15.142-0.523,25.188
	c-0.153,13.865,27.285,25.035,61.171,25.035h12.143c33.958,0,61.32-11.17,61.468-25.035c0-11.399,0.15-22.942,0.15-25.188
	c1.952-45.43,14.244-72.268,60.575-81.638c28.935-5.848,60.121,2.249,78.486,20.166c8.17,8.096,12.671,22.189,11.318,36.506
	c-0.749,9.672-4.871,27.813-22.938,40.406l-58.471,39.582c-37.182,23.989-53,52.324-53,95.355v71.366l-674.082,424.9
	c-63.195,38.906-78.112,95.355-78.341,139.283v2.698c0.153,24.289,4.797,44.454,7.949,55.326
	c7.945,28.187,44.23,119.492,176.614,119.492h1285.792c93.556,0,152.778-60.873,170.022-121.143
	C1678.525,1195.191,1659.257,1105.684,1588.645,1064.079L1588.645,1064.079z M1519.452,1212.434
	c-3.148,11.39-13.568,23.461-30.662,23.461H203.448c-17.991,0-28.038-11.769-31.185-21.666
	c-4.049-12.892,1.199-26.085,13.343-34.481l658.863-412.457l662.614,414.106C1523.346,1191.592,1521.25,1206.585,1519.452,1212.434z
	"/>
</svg>
