<?xml version="1.0" encoding="utf-8"?>
<!-- Generator: Adobe Illustrator 14.0.0, SVG Export Plug-In . SVG Version: 6.00 Build 43363)  -->
<!DOCTYPE svg PUBLIC "-//W3C//DTD SVG 1.1//EN" "http://www.w3.org/Graphics/SVG/1.1/DTD/svg11.dtd">
<svg version="1.1" id="Слой_1" xmlns="http://www.w3.org/2000/svg" xmlns:xlink="http://www.w3.org/1999/xlink" x="0px" y="0px"
	 width="1700.79px" height="1700.79px" viewBox="0 0 1700.79 1700.79" enable-background="new 0 0 1700.79 1700.79"
	 xml:space="preserve">
<path fill="#ADCB35" d="M1643.441,59.198c-10.58-10.648-26.383-15.253-45.345-15.458c-74.064-0.824-195.33,66.575-237.033,108.279
	l-209.758,209.758H197.47c-22.74,0-42.185,16.145-46.444,38.405c-4.294,22.26,7.936,44.451,29.027,52.766L810.87,702.141
	l-386.811,386.881H58.206c-7.833,0-14.635,5.633-16.077,13.326c-1.444,7.695,2.712,15.393,10.065,18.275l307.903,121.678
	c1.717,7.766,4.26,15.32,7.454,22.674l-13.466,13.396c-19.271,19.307-19.271,50.361,0,69.529c19.17,19.17,50.225,19.17,69.392,0
	l13.191-13.121c7.386,3.229,15.082,5.838,22.914,7.695l118.652,304.156c2.885,7.283,10.581,11.543,18.275,10.168
	c3.298-0.617,6.32-2.266,8.52-4.535c3.023-2.953,4.811-7.145,4.811-11.541v-358.092l392.993-392.994l246.927,632.912
	c8.245,21.023,30.368,33.391,52.768,29.201c9.619-1.855,17.999-6.527,24.596-12.986c8.658-8.725,13.881-20.475,13.881-33.527
	V551.471l209.688-209.756C1603.043,289.36,1695.795,111.551,1643.441,59.198z"/>
</svg>
