<?xml version="1.0" encoding="utf-8"?>
<!-- Generator: Adobe Illustrator 14.0.0, SVG Export Plug-In . SVG Version: 6.00 Build 43363)  -->
<!DOCTYPE svg PUBLIC "-//W3C//DTD SVG 1.1//EN" "http://www.w3.org/Graphics/SVG/1.1/DTD/svg11.dtd">
<svg version="1.1" id="Слой_1" xmlns="http://www.w3.org/2000/svg" xmlns:xlink="http://www.w3.org/1999/xlink" x="0px" y="0px"
	 width="1700.79px" height="1700.79px" viewBox="0 0 1700.79 1700.79" enable-background="new 0 0 1700.79 1700.79"
	 xml:space="preserve">
<path fill="#ADCB35" d="M1677.82,818.688c-40.097-28.723-100.803-47.105-168.854-47.105c-105.379,0-193.277,44.056-213.738,102.536
	l-8.813-0.068c-19.91-58.829-108.085-103.228-213.951-103.228c-68.127,0-128.826,18.452-168.854,47.312v495.256
	c0,123.275-100.247,223.594-223.523,223.594c-123.277,0-223.523-100.316-223.523-223.594c0-27.262,22.062-49.318,49.256-49.318
	c27.264,0,49.395,22.057,49.395,49.318c0,68.889,55.985,124.949,124.873,124.949s124.871-56.061,124.871-124.949V818.967
	C765,790.107,704.232,771.581,636.036,771.581c-105.38,0-193.273,44.056-213.706,102.537l-8.776-0.068
	c-19.98-58.83-108.155-103.229-213.986-103.229c-68.017,0-128.717,18.314-168.751,47.037
	c32.155-351.103,362.586-630.263,774.142-651.006v-36.907c0-27.194,22.133-49.254,49.395-49.254
	c27.195,0,49.258,22.06,49.258,49.254v36.907C1315.48,187.663,1646.049,467.241,1677.82,818.688z"/>
</svg>
