<?xml version="1.0" encoding="utf-8"?>
<!-- Generator: Adobe Illustrator 14.0.0, SVG Export Plug-In . SVG Version: 6.00 Build 43363)  -->
<!DOCTYPE svg PUBLIC "-//W3C//DTD SVG 1.1//EN" "http://www.w3.org/Graphics/SVG/1.1/DTD/svg11.dtd">
<svg version="1.1" id="Слой_1" xmlns="http://www.w3.org/2000/svg" xmlns:xlink="http://www.w3.org/1999/xlink" x="0px" y="0px"
	 width="1700.79px" height="1700.79px" viewBox="0 0 1700.79 1700.79" enable-background="new 0 0 1700.79 1700.79"
	 xml:space="preserve">
<path fill="#ADCB35" d="M1215.412,1614.387c277.964-135.701,469.691-421.25,469.691-751.229
	c0-330.232-191.728-615.656-469.691-751.292v244.248c101.089,74.066,179.296,177.833,222.322,298.298h-222.322v292.5
	c76.613-53.225,165.594-83.754,260.565-83.754c0,208.746-102.876,393.145-260.564,506.662L1215.412,1614.387L1215.412,1614.387z
	 M849.614,27.666L849.614,27.666v208.745l0,0c136.912,0,263.115,44.491,365.798,119.702V111.865
	C1104.951,57.941,980.787,27.666,849.614,27.666L849.614,27.666z M849.614,1698.649L849.614,1698.649
	c131.173,0,255.337-30.275,365.798-84.262v-244.568c-75.913,54.625-164.573,92.805-260.503,109.25
	c3.187-227.484,107.083-425.521,260.503-532.158v-292.5H849.614v104.151l0,0c57.62,0,104.211,46.721,104.211,104.596
	c0,57.621-46.592,104.213-104.211,104.213l0,0V1698.649z M849.614,27.666c-131.303,0-255.467,30.275-365.99,84.199v244.248
	c102.619-75.21,228.887-119.702,365.99-119.702V27.666L849.614,27.666z M483.624,1614.387
	c110.523,53.986,234.688,84.264,365.99,84.264V967.372c-57.938,0-104.533-46.592-104.533-104.213
	c0-57.875,46.594-104.533,104.533-104.596V654.411h-365.99v292.562c153.482,106.699,257.379,304.674,260.693,532.096
	c-95.992-16.445-184.717-54.689-260.693-109.377V1614.387z M483.624,111.865C205.593,247.502,14.089,532.926,14.089,863.159
	c0,329.979,191.504,615.527,469.535,751.229v-244.695C325.9,1256.237,222.866,1071.838,222.866,863.159
	c95.035,0,184.046,30.529,260.758,83.814V654.411H261.396c42.992-120.466,121.169-224.232,222.226-298.298V111.865H483.624z"/>
</svg>
